<?xml version="1.0" encoding="UTF-8"?>
<svg id="Layer_1" data-name="Layer 1" xmlns="http://www.w3.org/2000/svg" viewBox="0 0 595.23 168.39">
  <defs>
    <style>
      .cls-1 {
        fill: #fff;
      }
    </style>
  </defs>
  <path class="cls-1" d="m0,0v168.39h168.39V0H0Zm40.89,36.08h24.04l-24.04,37.16v-37.16Zm0,96.22v-37.16l24.04,37.16h-24.04Zm98.63-76.98h-45.71v19.24h40.89s0,19.24,0,19.24h-40.89v38.49l-31.12-48.11,31.12-48.11h45.71s0,19.24,0,19.24Z"/>
  <g>
    <path class="cls-1" d="m221.87,47.85l14.75-17.91h10.54l-14.87,17.62,16.16,25.35h-11.06l-11.47-17.74-4.04,4.8v12.94h-9.48V29.93h9.48v17.91Z"/>
    <path class="cls-1" d="m278.37,72.9l-14.87-28.74v28.74h-8.78V29.93h11.12l14.28,29.15v-29.15h8.78v42.97h-10.54Z"/>
    <path class="cls-1" d="m311.93,66.81h4.33v6.09h-18.09v-6.09h4.33v-30.79h-4.33v-6.09h18.09v6.09h-4.33v30.79Z"/>
    <path class="cls-1" d="m341.88,51.07h15.63v22.54h-5.97l-.94-5.03c-2.46,3.16-6.32,5.03-10.77,5.03-10.77,0-17.09-7.32-17.09-21.25,0-16.39,7.96-23.18,18.91-23.18,9.43,0,14.87,5.56,14.93,15.69l-9.31.7c-.12-7.08-2.87-8.9-6.26-8.9-4.57,0-8.25,3.57-8.25,15.28,0,10.54,3.45,14.23,8.61,14.23,3.98,0,7.61-2.52,7.84-8.25h-7.32v-6.85Z"/>
    <path class="cls-1" d="m401.01,72.9h-9.54v-17.44h-14.64v17.44h-9.48V29.93h9.48v17.74h14.64v-17.74h9.54v42.97Z"/>
    <path class="cls-1" d="m419.39,37.6h-11.35v-7.67h32.26v7.67h-11.36v35.3h-9.54v-35.3Z"/>
    <path class="cls-1" d="m235.69,126.06h-13.82v17.09h-9.48v-42.97h25.35v7.67h-15.86v10.77h13.82v7.44Z"/>
    <path class="cls-1" d="m243.74,121.84c0-14.28,7.38-22.42,19.03-22.42s17.74,7.96,17.74,21.72c0,14.46-6.32,22.71-18.61,22.71s-18.15-8.02-18.15-22.01Zm26.81-.53c0-9.95-2.57-14.28-8.08-14.28s-8.78,4.27-8.78,14.52,2.63,14.87,8.49,14.87,8.37-4.45,8.37-15.1Z"/>
    <path class="cls-1" d="m312.23,100.18h9.37v27.57c0,10.24-5.5,16.1-17.15,16.1-12.35,0-16.63-6.2-16.63-16.45v-27.22h9.31v24.7c0,7.49,1.46,11.41,7.61,11.41s7.49-3.63,7.49-11.36v-24.76Z"/>
    <path class="cls-1" d="m355.44,143.15l-14.87-28.74v28.74h-8.78v-42.97h11.12l14.28,29.15v-29.15h8.78v42.97h-10.54Z"/>
    <path class="cls-1" d="m376.4,143.15v-42.97h10.54c16.27,0,22.54,7.14,22.54,20.61,0,14.93-6.27,22.36-22.65,22.36h-10.42Zm11.77-7.73c7.55,0,11.53-3.51,11.53-14.05s-3.63-13.52-11.53-13.52h-2.28v27.57h2.28Z"/>
    <path class="cls-1" d="m438.27,100.18l14.46,42.97h-9.72l-3.28-9.89h-14.87l-3.16,9.89h-9.43l14.17-42.97h11.83Zm-6.03,8.72h-.12l-5.27,17.09h10.83l-5.44-17.09Z"/>
    <path class="cls-1" d="m464.15,107.85h-11.35v-7.67h32.26v7.67h-11.36v35.3h-9.54v-35.3Z"/>
    <path class="cls-1" d="m506.07,137.07h4.33v6.09h-18.09v-6.09h4.33v-30.79h-4.33v-6.09h18.09v6.09h-4.33v30.79Z"/>
    <path class="cls-1" d="m517.01,121.84c0-14.28,7.38-22.42,19.03-22.42s17.74,7.96,17.74,21.72c0,14.46-6.32,22.71-18.61,22.71s-18.15-8.02-18.15-22.01Zm26.81-.53c0-9.95-2.57-14.28-8.08-14.28s-8.78,4.27-8.78,14.52,2.63,14.87,8.49,14.87,8.37-4.45,8.37-15.1Z"/>
    <path class="cls-1" d="m584.69,143.15l-14.87-28.74v28.74h-8.78v-42.97h11.12l14.28,29.15v-29.15h8.78v42.97h-10.54Z"/>
  </g>
</svg>