<svg xmlns="http://www.w3.org/2000/svg" id="Layer_1" data-name="Layer 1" viewBox="0 0 792 242.99"><defs><style>.cls-1{fill:#fff;}</style></defs><path class="cls-1" d="M30.11,51.6h29.6v127h43v28.08H30.11Z"></path><path class="cls-1" d="M206.8,194.6c-10.15,9.93-21,15.12-35.43,15.12-29.16,0-54.64-25.06-54.64-60.27,0-35.85,24.19-60.48,54-60.48,13.82,0,25.7,5.19,36.07,15.55V92h28.73V206.69H206.8Zm-61.13-45.36c0,19.65,13,34.13,30.89,34.13,17.71,0,31.54-13.4,31.54-34.35,0-20.09-13.4-33.7-31.54-33.7C157.55,115.32,145.67,130.45,145.67,149.24Z"></path><path class="cls-1" d="M293.2,206.69H264.47v-159H293.2v56.8C303.56,94.16,315.44,89,329.27,89c29.59,0,54.22,24.63,54.22,60.48,0,35.21-25.71,60.27-54.87,60.27-14.47,0-25.06-5.19-35.42-15.12ZM291.9,149c0,20.74,13.82,34.35,31.54,34.35,17.92,0,31.1-14.48,31.1-34.13,0-18.79-12.1-33.92-31.1-33.92C305.08,115.32,291.9,128.93,291.9,149Z"></path><path class="cls-1" d="M445,143.62C463,125.48,474.2,110.79,474.2,95.88c0-11.66-8.64-20.95-21.38-20.95-13,0-22,10.59-22.68,26.57H401.41c1.51-34.34,23.33-53.78,53.14-53.78,30.24,0,48.6,22.68,48.6,46.44,0,22.46-13.83,43.2-36.51,67l-17.28,18.14h55.08v27.43H397.09V192.44Z"></path><path class="cls-1" d="M566,143.62c17.93-18.14,29.16-32.83,29.16-47.74,0-11.66-8.64-20.95-21.38-20.95-13,0-22,10.59-22.68,26.57H522.37c1.51-34.34,23.33-53.78,53.14-53.78,30.24,0,48.6,22.68,48.6,46.44,0,22.46-13.83,43.2-36.51,67l-17.28,18.14H625.4v27.43H518.05V192.44Z"></path><path class="cls-1" d="M760,185.74c-12.31,16-29.59,24-52.06,24-39.09,0-64.37-26.57-64.37-60.05,0-34.35,26.79-60.7,64.8-60.7,22.47,0,41.48,9.29,52.93,26.14l-24,13.18c-8.21-8.64-16.2-13-28.73-13-22,0-36.07,14.91-36.07,34.78,0,19.44,13.61,33.27,34.77,33.27,12.75,0,22.9-4.32,30-13.18Z"></path></svg>