<svg id="Layer_1" data-name="Layer 1" xmlns="http://www.w3.org/2000/svg" width="100%" viewBox="0 0 900 200">
  <g>
    <path d="M483.32,115.61c-.37-2.5-.83-3.33-5-4.06-6.28-1-7.85-1.3-12.1-1.3-24.1,0-35.18,16.53-35.18,29.37,0,11.72,10.25,29.64,33.61,29.64,9.33,0,15.51-2.87,17-3.79,1.94-1.11,2.12-1.94,2.22-3.23l.74-7.85c0-.65,0-1.48-1.39-1.48-.92,0-1.66,1.38-1.85,1.76C477.51,161.77,473.44,167,465,167c-13.94,0-21.52-14.78-21.52-27.71,0-11.81,7-26.59,22.17-26.59,8.49,0,11.91,4.34,15.23,9.33,1,1.48,1.57,1.66,2.22,1.66,1.1,0,1.1-.65,1.1-1.57l-.83-6.46Z" style="fill: #fff"/>
    <path d="M535.48,146.72c0-13.94-11.73-20.86-22.26-20.86a22.12,22.12,0,0,0-22.44,21.7c0,10.43,8.5,21.7,22.81,21.7,12.84,0,21.89-10.25,21.89-22.54Zm-35.09-.83c0-11.26,5.44-17.91,12.09-17.91,10.07,0,13.39,13.3,13.39,19.67,0,10.89-5.82,19.48-12.55,19.48-7.3,0-12.93-9.79-12.93-21.24Z" style="fill: #fff;fill-rule: evenodd"/>
    <path d="M546.5,159.38c0,5.07,0,6.09-4,6.64-2,.28-2.76.65-2.76,1.48,0,1.2.92,1.2,2,1.2,1.94,0,3-.37,9.14-.37,5.35,0,7.2.37,9.69.37.65,0,1.57,0,1.57-1.11,0-.83-.46-1.29-2.77-1.57-4-.55-4-1.57-4-6.74v-42.1c0-1,.37-6.74.37-7.94,0-.93,0-1.94-1-1.94-.47,0-.65.09-2.87,1.2a47.22,47.22,0,0,1-7.94,2.77c-2.68.64-3,.74-3,1.57,0,1,.46,1,2.12,1.2,3.33.27,3.33,3.41,3.33,6.19v39.15Z" style="fill: #fff"/>
    <path d="M570.68,159.38c0,5.07,0,6.09-4,6.64-2,.28-2.77.65-2.77,1.48,0,1.2.92,1.2,2,1.2,1.94,0,3-.37,9.14-.37,5.35,0,7.2.37,9.69.37.65,0,1.57,0,1.57-1.11,0-.83-.46-1.29-2.77-1.57-4-.55-4-1.57-4-6.74v-42.1c0-1,.37-6.74.37-7.94,0-.93,0-1.94-1-1.94-.47,0-.65.09-2.87,1.2a47.22,47.22,0,0,1-7.94,2.77c-2.68.64-2.95.74-2.95,1.57,0,1,.46,1,2.12,1.2,3.33.27,3.33,3.41,3.33,6.19v39.15Z" style="fill: #fff"/>
    <path d="M627.27,140.91c1.48,0,2.49,0,2.49-1.67,0-3.13-3-13.38-16.9-13.38-12.55,0-22.9,8.86-22.9,22.53,0,12.83,9.24,20.87,21.43,20.87,11.72,0,18.19-8.13,18.19-9.52a.82.82,0,0,0-.83-.83c-.56,0-.65.1-2,1.48a15.06,15.06,0,0,1-10.15,3.69c-9.52,0-16.35-7.94-16.35-18.28,0-4.8.83-4.89,2.4-4.89ZM603.91,138c-2.13,0-2.5,0-2.5-1,0-1.48,2.87-9,11.18-9,1.38,0,7.66.18,7.66,5.63,0,2.4-2.31,4.43-6.28,4.43Z" style="fill: #fff;fill-rule: evenodd"/>
    <path d="M668.62,129.09c-1.57,0-1.57,0-4-1a21.9,21.9,0,0,0-9.79-2.21c-11.26,0-18.28,7.2-18.28,14.68,0,7.2,5.82,10.16,9.51,12,.19.09.56.28.56.55s-.28.47-1.3.84L639,156.14a2.62,2.62,0,0,0-2,2.59c0,2.12,4.25,5.54,5.17,6.19,2.13,1.47,2.13,1.66,2.13,1.93,0,.46-1.85,1.39-2.5,1.76-3.51,1.75-7.48,3.88-7.48,8.49,0,7.57,10.9,9.42,17.36,9.42,15.15,0,26.5-7.94,26.5-16.71,0-4.53-3.87-9.88-15.6-9.79H651.17c-.55,0-4.34-.09-4.34-2.86,0-3.14,5.91-3.32,8.5-3.42,12.92-.37,17.73-8.68,17.73-13.57a15.06,15.06,0,0,0-1.48-5.91,1.44,1.44,0,0,1-.28-.83c0-.56.55-.65,1.66-.65h3.33c1.29,0,1.57-.09,1.57-1.2,0-.18-.1-2.49-1.76-2.49Zm-5.44,10.43c0,12.28-7.11,12.28-7.95,12.28-4.15,0-8.67-3.69-8.67-11.91,0-7.85,4.06-12,8.49-12,6.56,0,8.13,8.22,8.13,11.63ZM658,168.06c2.4,0,12.29.09,12.29,6.27,0,7.57-9.79,9.51-14.69,9.51-7.48,0-12.65-4-12.65-9.05,0-4.43,3.7-7.11,5.08-7.11.83,0,4.43.47,5.26.47l4.71-.09Z" style="fill: #fff;fill-rule: evenodd"/>
    <path d="M717.82,140.91c1.48,0,2.5,0,2.5-1.67,0-3.13-3-13.38-16.9-13.38-12.56,0-22.9,8.86-22.9,22.53,0,12.83,9.23,20.87,21.42,20.87,11.73,0,18.19-8.13,18.19-9.52a.81.81,0,0,0-.83-.83c-.55,0-.65.1-2,1.48a15.09,15.09,0,0,1-10.16,3.69c-9.51,0-16.34-7.94-16.34-18.28,0-4.8.83-4.89,2.4-4.89ZM694.46,138c-2.12,0-2.49,0-2.49-1,0-1.48,2.86-9,11.17-9,1.39,0,7.67.18,7.67,5.63,0,2.4-2.31,4.43-6.28,4.43Z" style="fill: #fff;fill-rule: evenodd"/>
    <path d="M396.72,29.57h.19l.74,39.89c.09,4.34,0,6.65-4.25,7-2.77.19-3.6.28-3.6,1.57,0,1.11,1,1.2,1.66,1.2,1.85,0,6.84-.37,11.45-.37,3.42,0,8.31.37,9.7.37.92,0,2.4,0,2.4-1.29,0-1-.93-1.39-2.86-1.39-4.07,0-4.25-1.29-4.34-7l-1.3-39.24c-.18-4.89,0-6.09,4.34-6.37,2.59-.18,3.42-.18,3.42-1.38s-1.29-1.2-2.31-1.2-3.51.36-5.54.36-5.63-.36-7.66-.36c-1.48,0-2.5.18-3.7,3.23L380.38,62.08l-15.6-38.51c-.93-2.21-1.67-2.21-2.59-2.21-1.11,0-3,.36-6.37.36-2.49,0-7.57-.36-8.59-.36-1.38,0-2,.46-2,1.2,0,1,.56,1.57,3.69,1.66,4.16.09,4.34.09,4.34,4.61,0,12.19-1.93,39.43-1.93,40.08-.19,6.46-1.57,7-4.62,7.48-2.59.37-3.51.55-3.51,1.66s.92,1.2,1.57,1.2c1.48,0,5.08-.37,8.31-.37,4,0,7,.37,8.31.37,1,0,2.68,0,2.68-1.38s-1.48-1.39-3.6-1.39c-4.62-.09-5.45-.55-5.45-15.05,0-9.51.65-20,1.29-30.29h.19l18.28,44.42c.65,1.57,1.2,2.31,2.12,2.31s1.39-.84,2.22-3.05l17.63-45.25Z" style="fill: #fff"/>
    <path d="M425.28,69.93c0,5.07,0,6.09-4,6.64-2,.28-2.77.65-2.77,1.48,0,1.2.92,1.2,1.57,1.2,1.57,0,5.81-.37,9.69-.37,4.25,0,8.22.37,9.61.37.64,0,1.57,0,1.57-1.11,0-.83-.47-1.29-2.77-1.57-4-.55-4-1.66-4-6.74V40c0-2,0-3.24-1-3.24-.74,0-3.6,2.5-4.25,3a29.18,29.18,0,0,1-8.12,3.79c-1.11.37-1.48.83-1.48,1.47,0,1.11,1.48,1.2,1.75,1.2,3.33.19,4.16,1.48,4.16,6.19V69.93Zm9.51-43.68a5.13,5.13,0,1,0-5.08,4.89,5,5,0,0,0,5.08-4.89Z" style="fill: #fff;fill-rule: evenodd"/>
    <path d="M466.07,52.38c0,1.66-.09,2.4-2.3,3.33-14.22,5.63-19.12,9.6-19.12,16.34,0,1.38.46,7.76,7.2,7.76,4.16,0,9.15-3.42,13-6.56,0,0,.47-.37.65-.37s.46,0,1.29,1.75c1.11,2.22,2.87,5,6.47,5,4.06,0,9.69-4.34,9.69-6.56a.88.88,0,0,0-.83-.83c-.46,0-.55.1-1.57.93a4.49,4.49,0,0,1-2.68.92c-2.58,0-2.86-2.31-2.86-5.17V43.15c0-3.79-2.12-6.74-10.8-6.74-14,0-19.85,9.51-19.85,12.65a1.88,1.88,0,0,0,2,1.84c.09,0,5.44-.37,6.92-4.52.74-2.12,2.77-7.76,8.13-7.76,4.34,0,4.61,4.43,4.61,7.67v6.09Zm0,11.73c0,6.46-3.6,9.78-7.75,9.78-2,0-4.16-1.66-4.16-6.09,0-1.85,0-5.35,5.82-8.13,1.48-.73,3.79-1.93,5.08-1.93.46,0,1,.09,1,1v5.36Z" style="fill: #fff;fill-rule: evenodd"/>
    <path d="M543.41,69.74c0,5.26,0,6.28-3.78,6.83-2,.28-2.77.65-2.77,1.48,0,1.2.92,1.2,1.57,1.2,1.47,0,4.24-.37,9.51-.37,4.8,0,8,.37,9.42.37.64,0,1.57,0,1.57-1.11,0-.83-.47-1.29-2.77-1.57-3.79-.55-3.79-1.66-3.79-6.83V47.67c0-3.05-1-11.26-13-11.26-3.23,0-6.65,1.29-10.34,4.34-.46.36-2.59,2.67-3.23,2.67-.37,0-.56-.18-1.85-2.21-3-4.71-8.68-4.8-9.79-4.8-4.15,0-7.48.55-12.65,6-.55.55-1,1-1.29,1s-.37-.27-.37-1.84V37.05c0-.83-.18-1.66-1-1.66-.65,0-1.39.93-2,1.66-2.86,3.33-8.77,5.82-9.42,6-1,.28-1.38.65-1.38,1.21,0,1.19,1.11,1.19,2.58,1.29,2.78.18,2.78,2.21,2.78,6.55V69.83c0,5.17,0,6.19-4,6.74-2,.28-2.86.65-2.86,1.48,0,1.2,1,1.2,1.76,1.2,1.47,0,5.26-.37,9.51-.37,4.71,0,8.12.37,9.32.37.83,0,1.76,0,1.76-1.11,0-.83-.46-1.29-2.77-1.57-3.79-.55-3.79-1.66-3.79-6.83V50.16c0-2.21.28-3.87,1.48-5.17,1.75-1.94,3.78-3.14,7.94-3.14,6.37,0,7.66,5.18,7.66,9.88v18c0,5.26,0,6.28-3.78,6.83-2.13.28-2.77.65-2.77,1.48,0,1.2.83,1.2,1.57,1.2,1.48,0,4.43-.37,9.51-.37s7.94.37,9.42.37c.64,0,1.57,0,1.57-1.11,0-.83-.46-1.29-2.77-1.57-3.79-.55-3.79-1.66-3.79-6.83V49.89c0-1.94.09-3.88,1.39-5.27a11.23,11.23,0,0,1,7.94-3.13c7.75,0,7.75,6.27,7.75,8.95v19.3Z" style="fill: #fff"/>
    <path d="M568.22,69.93c0,5.07,0,6.09-4,6.64-2,.28-2.77.65-2.77,1.48,0,1.2.92,1.2,1.57,1.2,1.57,0,5.81-.37,9.69-.37,4.25,0,8.22.37,9.61.37.64,0,1.57,0,1.57-1.11,0-.83-.47-1.29-2.78-1.57-4-.55-4-1.66-4-6.74V40c0-2,0-3.24-1-3.24-.74,0-3.6,2.5-4.25,3a29.18,29.18,0,0,1-8.12,3.79c-1.11.37-1.48.83-1.48,1.47,0,1.11,1.48,1.2,1.75,1.2,3.33.19,4.16,1.48,4.16,6.19V69.93Zm9.51-43.68a5.13,5.13,0,1,0-5.08,4.89,5,5,0,0,0,5.08-4.89Z" style="fill: #fff;fill-rule: evenodd"/>
    <path d="M614.7,69.83c0,3.79,0,6.28-4.71,6.56-1.85.09-3.23.18-3.23,1.57s1.2,1.29,1.84,1.29c.46,0,9.24-.37,10.9-.37,2.31,0,14.22.37,16.9.37,24.1,0,30.93-19.11,30.93-29a28.36,28.36,0,0,0-12.28-23c-5.91-4.06-12.56-5.9-24.47-5.9-8.59,0-24,1.29-24,3.87,0,.74.46,1,1.29,1,.65,0,3.33-.74,3.88-.74,1.85,0,3,1.29,3,5.08V69.83Zm9.88-38.69c0-5.17.55-7.38,6.09-7.38,19.58,0,25.76,16.52,25.76,27.05,0,14.78-10.89,26.13-23.17,26.13-7.11,0-8.68-3.23-8.68-9.14V31.14Z" style="fill: #fff;fill-rule: evenodd"/>
    <path d="M695.47,52.38c0,1.66-.09,2.4-2.31,3.33-14.22,5.63-19.11,9.6-19.11,16.34,0,1.38.46,7.76,7.2,7.76,4.16,0,9.14-3.42,13-6.56,0,0,.46-.37.64-.37s.47,0,1.3,1.75c1.11,2.22,2.86,5,6.46,5,4.07,0,9.7-4.34,9.7-6.56a.89.89,0,0,0-.84-.83c-.45,0-.55.1-1.56.93a4.51,4.51,0,0,1-2.68.92c-2.59,0-2.86-2.31-2.86-5.17V43.15c0-3.79-2.13-6.74-10.81-6.74-14,0-19.85,9.51-19.85,12.65a1.89,1.89,0,0,0,2,1.84c.09,0,5.45-.37,6.93-4.52.73-2.12,2.77-7.76,8.12-7.76,4.34,0,4.62,4.43,4.62,7.67v6.09Zm0,11.73c0,6.46-3.6,9.78-7.76,9.78-2,0-4.15-1.66-4.15-6.09,0-1.85,0-5.35,5.82-8.13,1.47-.73,3.78-1.93,5.07-1.93.46,0,1,.09,1,1v5.36Z" style="fill: #fff;fill-rule: evenodd"/>
    <path d="M756.56,28.1c0-1.39.36-7.58.36-8.87,0-.37,0-1.75-1.1-1.75a2.2,2.2,0,0,0-1.11.37,38.36,38.36,0,0,1-10.53,3.6c-.27.09-1.66.46-1.66,1.48,0,.83,1.2,1,1.66,1.1,3,.19,3.42,1,3.42,3.79v9.79a.72.72,0,0,1-.65.74,3.9,3.9,0,0,1-1.1-.37A21.36,21.36,0,0,0,738,36.41a22.58,22.58,0,0,0-22.35,22.71c0,12.37,9.05,20.69,19.48,20.69,5.27,0,8.41-2.31,10.9-4.34a2.82,2.82,0,0,1,1.29-.65c.65,0,.83.83.83,1.38.28,3.42.84,3.61,1.57,3.61A58.69,58.69,0,0,0,756,77.5c6.1-2,6.28-2.13,6.28-4.53,0-.28,0-1.11-.55-1.11-.74,0-3.14,2.41-3.79,2.41s-1.38-.56-1.38-3.24V28.1ZM748,69.37c0,1.66,0,5.26-7.76,5.26-9.14,0-14.77-7.84-14.77-18.28,0-12.09,6.83-18,13.2-18,9.33,0,9.33,8.31,9.33,12.46V69.37Z" style="fill: #fff;fill-rule: evenodd"/>
    <path d="M803.68,51.46c1.48,0,2.5,0,2.5-1.67,0-3.13-3-13.38-16.9-13.38-12.56,0-22.9,8.86-22.9,22.53,0,12.83,9.23,20.87,21.42,20.87,11.73,0,18.19-8.13,18.19-9.52a.81.81,0,0,0-.83-.83c-.55,0-.65.09-2,1.48A15.09,15.09,0,0,1,793,74.63c-9.51,0-16.34-7.94-16.34-18.28,0-4.8.83-4.89,2.4-4.89ZM780.32,48.6c-2.12,0-2.49,0-2.49-1,0-1.48,2.86-9,11.17-9,1.39,0,7.67.18,7.67,5.63,0,2.4-2.31,4.44-6.28,4.44Z" style="fill: #fff;fill-rule: evenodd"/>
    <path d="M96.94,19.69h.15c.09.16.28.43.49.43v-.07l.29-.29h.07v.08l56.27,106.42L175,165.69h.07V22a5.63,5.63,0,0,1,.12-2.15c.13-.25.74-.19,1-.19h65.93c7.59,0,15.27-.21,22.23.8A72.5,72.5,0,0,1,308.92,44.8c14.2,16.09,21.83,40,16.7,63.34C320.68,130.53,306.15,150,285,159.77a73,73,0,0,1-31,7.06V20.62h-.08v.07L196.67,128.87l-15.79,29.87L177.07,166c-.3.5-.55,1.47-1.07,1.8s-3.64.13-4.46.13H96.94Z" style="fill: #fff"/>
  </g>
</svg>
